# xmcd
#
# Track frame offsets:
#	150
#	16556
#	31189
#	52308
#	70086
#	83841
#	108851
#	130319
#	148372
#	162951
#	173122
#	191255
#
# Disc length: 2962 seconds
#
# Revision: 1
# Processed by: cddbd v1.5.2PL0 Copyright (c) Steve Scherf et al.
# Submitted via: audiograbber 1.83.01
#
DISCID=9b0b900c
DTITLE=Murali Coryell - Restless Mind
DYEAR=2014
DGENRE=
TTITLE0=Waiting And Wasting Away
TTITLE1=Kiss Me First
TTITLE2=Restless Mind
TTITLE3=I´m So Happy
TTITLE4=Sex Maniac
TTITLE5=Crime Of Opportunity
TTITLE6=I Can´t Give You Up
TTITLE7=Tag Along
TTITLE8=I Need Someone To Love
TTITLE9=Lonely Eyes
TTITLE10=Everyday Is A Struggle
TTITLE11=Let´s Get It On
EXTD=
EXTT0=
EXTT1=
EXTT2=
EXTT3=
EXTT4=
EXTT5=
EXTT6=
EXTT7=
EXTT8=
EXTT9=
EXTT10=
EXTT11=
PLAYORDER=
